<mxfile host="app.diagrams.net" agent="Mozilla/5.0 (Windows NT 10.0; Win64; x64) AppleWebKit/537.36 (KHTML, like Gecko) Chrome/129.0.0.0 Safari/537.36" version="24.7.17">
  <diagram name="Page-1" id="XEwzCVqfgv6WoFN6cU4P">
    <mxGraphModel dx="1363" dy="797" grid="1" gridSize="10" guides="1" tooltips="1" connect="1" arrows="1" fold="1" page="1" pageScale="1" pageWidth="850" pageHeight="1100" math="0" shadow="0">
      <root>
        <mxCell id="0" />
        <mxCell id="1" parent="0" />
        <mxCell id="l-zGgqVaCMHIHdRE0eHl-30" value="" style="edgeStyle=orthogonalEdgeStyle;rounded=0;orthogonalLoop=1;jettySize=auto;html=1;" parent="1" source="l-zGgqVaCMHIHdRE0eHl-1" edge="1">
          <mxGeometry relative="1" as="geometry">
            <mxPoint x="160" y="200" as="targetPoint" />
            <Array as="points">
              <mxPoint x="45" y="170" />
            </Array>
          </mxGeometry>
        </mxCell>
        <mxCell id="l-zGgqVaCMHIHdRE0eHl-1" value="Pilot" style="shape=umlActor;verticalLabelPosition=bottom;verticalAlign=top;html=1;outlineConnect=0;" parent="1" vertex="1">
          <mxGeometry x="30" y="211" width="30" height="50" as="geometry" />
        </mxCell>
        <mxCell id="l-zGgqVaCMHIHdRE0eHl-5" value="" style="image;sketch=0;aspect=fixed;html=1;points=[];align=center;fontSize=12;image=img/lib/mscae/Docker.svg;" parent="1" vertex="1">
          <mxGeometry x="1104.1100000000001" y="410" width="109.77" height="90" as="geometry" />
        </mxCell>
        <mxCell id="l-zGgqVaCMHIHdRE0eHl-15" style="edgeStyle=orthogonalEdgeStyle;rounded=0;orthogonalLoop=1;jettySize=auto;html=1;exitX=1;exitY=0.5;exitDx=0;exitDy=0;exitPerimeter=0;" parent="1" target="WMIW8oXceBt_Od-okvsg-7" edge="1">
          <mxGeometry relative="1" as="geometry">
            <mxPoint x="190" y="233" as="sourcePoint" />
            <mxPoint x="318" y="234" as="targetPoint" />
            <Array as="points">
              <mxPoint x="190" y="234" />
              <mxPoint x="319" y="234" />
            </Array>
          </mxGeometry>
        </mxCell>
        <mxCell id="l-zGgqVaCMHIHdRE0eHl-33" value="&lt;b&gt;&lt;font style=&quot;font-size: 13px;&quot;&gt;Streamlit App&amp;nbsp;&lt;/font&gt;&lt;/b&gt;" style="text;html=1;align=center;verticalAlign=middle;resizable=0;points=[];autosize=1;strokeColor=none;fillColor=none;" parent="1" vertex="1">
          <mxGeometry x="115" y="261" width="110" height="30" as="geometry" />
        </mxCell>
        <mxCell id="WMIW8oXceBt_Od-okvsg-1" value="" style="verticalLabelPosition=bottom;aspect=fixed;html=1;shape=mxgraph.salesforce.stream2;" vertex="1" parent="1">
          <mxGeometry x="130" y="208" width="52" height="52" as="geometry" />
        </mxCell>
        <mxCell id="WMIW8oXceBt_Od-okvsg-3" value="" style="edgeStyle=orthogonalEdgeStyle;rounded=0;orthogonalLoop=1;jettySize=auto;html=1;" edge="1" parent="1">
          <mxGeometry relative="1" as="geometry">
            <mxPoint x="165" y="301" as="targetPoint" />
            <Array as="points">
              <mxPoint x="40" y="320" />
              <mxPoint x="165" y="320" />
            </Array>
            <mxPoint x="40" y="290" as="sourcePoint" />
          </mxGeometry>
        </mxCell>
        <mxCell id="WMIW8oXceBt_Od-okvsg-4" value="Text Question" style="text;html=1;align=center;verticalAlign=middle;resizable=0;points=[];autosize=1;strokeColor=none;fillColor=none;" vertex="1" parent="1">
          <mxGeometry x="50" y="140" width="100" height="30" as="geometry" />
        </mxCell>
        <mxCell id="WMIW8oXceBt_Od-okvsg-5" value="Voice Question" style="text;html=1;align=center;verticalAlign=middle;resizable=0;points=[];autosize=1;strokeColor=none;fillColor=none;" vertex="1" parent="1">
          <mxGeometry x="50" y="320" width="100" height="30" as="geometry" />
        </mxCell>
        <mxCell id="WMIW8oXceBt_Od-okvsg-6" value="Triggers RAG" style="text;html=1;align=center;verticalAlign=middle;resizable=0;points=[];autosize=1;strokeColor=none;fillColor=none;" vertex="1" parent="1">
          <mxGeometry x="183" y="208" width="100" height="30" as="geometry" />
        </mxCell>
        <mxCell id="WMIW8oXceBt_Od-okvsg-7" value="RAG" style="rhombus;whiteSpace=wrap;html=1;" vertex="1" parent="1">
          <mxGeometry x="278" y="194" width="80" height="80" as="geometry" />
        </mxCell>
        <mxCell id="WMIW8oXceBt_Od-okvsg-14" value="" style="endArrow=classic;html=1;rounded=0;" edge="1" parent="1">
          <mxGeometry relative="1" as="geometry">
            <mxPoint x="370" y="233.5" as="sourcePoint" />
            <mxPoint x="480" y="233.5" as="targetPoint" />
            <Array as="points">
              <mxPoint x="410" y="234.5" />
            </Array>
          </mxGeometry>
        </mxCell>
        <mxCell id="WMIW8oXceBt_Od-okvsg-15" value="Retrieval" style="edgeLabel;resizable=0;html=1;;align=center;verticalAlign=middle;" connectable="0" vertex="1" parent="WMIW8oXceBt_Od-okvsg-14">
          <mxGeometry relative="1" as="geometry">
            <mxPoint x="-5" as="offset" />
          </mxGeometry>
        </mxCell>
        <mxCell id="WMIW8oXceBt_Od-okvsg-17" value="" style="outlineConnect=0;dashed=0;verticalLabelPosition=bottom;verticalAlign=top;align=center;html=1;shape=mxgraph.aws3.elasticsearch_service;fillColor=#F58534;gradientColor=none;" vertex="1" parent="1">
          <mxGeometry x="490" y="194" width="60" height="67.5" as="geometry" />
        </mxCell>
        <mxCell id="WMIW8oXceBt_Od-okvsg-18" value="Elastic Search Vector DB" style="text;html=1;align=center;verticalAlign=middle;whiteSpace=wrap;rounded=0;" vertex="1" parent="1">
          <mxGeometry x="490" y="270" width="60" height="30" as="geometry" />
        </mxCell>
        <mxCell id="WMIW8oXceBt_Od-okvsg-19" value="" style="endArrow=classic;html=1;rounded=0;" edge="1" parent="1">
          <mxGeometry relative="1" as="geometry">
            <mxPoint x="560" y="227.25" as="sourcePoint" />
            <mxPoint x="660" y="227.25" as="targetPoint" />
          </mxGeometry>
        </mxCell>
        <mxCell id="WMIW8oXceBt_Od-okvsg-20" value="Prompt&lt;br&gt;Generation" style="edgeLabel;resizable=0;html=1;;align=center;verticalAlign=middle;" connectable="0" vertex="1" parent="WMIW8oXceBt_Od-okvsg-19">
          <mxGeometry relative="1" as="geometry" />
        </mxCell>
        <mxCell id="WMIW8oXceBt_Od-okvsg-24" value="" style="edgeStyle=orthogonalEdgeStyle;rounded=0;orthogonalLoop=1;jettySize=auto;html=1;" edge="1" parent="1" source="WMIW8oXceBt_Od-okvsg-21">
          <mxGeometry relative="1" as="geometry">
            <mxPoint x="781.625" y="227.755" as="targetPoint" />
          </mxGeometry>
        </mxCell>
        <mxCell id="WMIW8oXceBt_Od-okvsg-21" value="" style="shape=image;html=1;verticalAlign=top;verticalLabelPosition=bottom;labelBackgroundColor=#ffffff;imageAspect=0;aspect=fixed;image=https://cdn4.iconfinder.com/data/icons/success-filloutline/64/brain-think-brainstorm-creative-idea-128.png" vertex="1" parent="1">
          <mxGeometry x="670" y="203.88" width="47.75" height="47.75" as="geometry" />
        </mxCell>
        <mxCell id="WMIW8oXceBt_Od-okvsg-22" value="gpt4o-mini" style="text;html=1;align=center;verticalAlign=middle;whiteSpace=wrap;rounded=0;" vertex="1" parent="1">
          <mxGeometry x="663.88" y="260" width="60" height="20" as="geometry" />
        </mxCell>
        <mxCell id="WMIW8oXceBt_Od-okvsg-25" value="" style="shape=image;html=1;verticalAlign=top;verticalLabelPosition=bottom;labelBackgroundColor=#ffffff;imageAspect=0;aspect=fixed;image=https://cdn4.iconfinder.com/data/icons/48-bubbles/48/33.Thumbs-Up-128.png" vertex="1" parent="1">
          <mxGeometry x="880" y="180" width="40" height="40" as="geometry" />
        </mxCell>
        <mxCell id="WMIW8oXceBt_Od-okvsg-27" value="" style="shape=image;html=1;verticalAlign=top;verticalLabelPosition=bottom;labelBackgroundColor=#ffffff;imageAspect=0;aspect=fixed;image=https://cdn0.iconfinder.com/data/icons/evericons-24px-vol-1/24/thumbs-down-128.png" vertex="1" parent="1">
          <mxGeometry x="880" y="249.5" width="41" height="41" as="geometry" />
        </mxCell>
        <mxCell id="WMIW8oXceBt_Od-okvsg-30" value="" style="image;aspect=fixed;html=1;points=[];align=center;fontSize=12;image=img/lib/azure2/databases/Azure_Database_PostgreSQL_Server.svg;" vertex="1" parent="1">
          <mxGeometry x="950" y="156" width="78" height="104" as="geometry" />
        </mxCell>
        <mxCell id="WMIW8oXceBt_Od-okvsg-31" value="" style="endArrow=classic;html=1;rounded=0;entryX=0.006;entryY=0.692;entryDx=0;entryDy=0;entryPerimeter=0;" edge="1" parent="1" target="WMIW8oXceBt_Od-okvsg-30">
          <mxGeometry width="50" height="50" relative="1" as="geometry">
            <mxPoint x="870.0000000000041" y="228.875" as="sourcePoint" />
            <mxPoint x="911.63" y="183" as="targetPoint" />
          </mxGeometry>
        </mxCell>
        <mxCell id="WMIW8oXceBt_Od-okvsg-32" value="" style="sketch=0;points=[[0,0,0],[0.25,0,0],[0.5,0,0],[0.75,0,0],[1,0,0],[0,1,0],[0.25,1,0],[0.5,1,0],[0.75,1,0],[1,1,0],[0,0.25,0],[0,0.5,0],[0,0.75,0],[1,0.25,0],[1,0.5,0],[1,0.75,0]];points=[[0,0,0],[0.25,0,0],[0.5,0,0],[0.75,0,0],[1,0,0],[0,1,0],[0.25,1,0],[0.5,1,0],[0.75,1,0],[1,1,0],[0,0.25,0],[0,0.5,0],[0,0.75,0],[1,0.25,0],[1,0.5,0],[1,0.75,0]];outlineConnect=0;fontColor=#232F3E;fillColor=#E7157B;strokeColor=#ffffff;dashed=0;verticalLabelPosition=bottom;verticalAlign=top;align=center;html=1;fontSize=12;fontStyle=0;aspect=fixed;shape=mxgraph.aws4.resourceIcon;resIcon=mxgraph.aws4.managed_service_for_grafana;" vertex="1" parent="1">
          <mxGeometry x="1120" y="169" width="78" height="78" as="geometry" />
        </mxCell>
        <mxCell id="WMIW8oXceBt_Od-okvsg-36" value="Grafana Dashboard" style="text;html=1;align=center;verticalAlign=middle;whiteSpace=wrap;rounded=0;" vertex="1" parent="1">
          <mxGeometry x="1129" y="255" width="60" height="30" as="geometry" />
        </mxCell>
        <mxCell id="WMIW8oXceBt_Od-okvsg-37" value="" style="endArrow=classic;html=1;rounded=0;" edge="1" parent="1">
          <mxGeometry relative="1" as="geometry">
            <mxPoint x="1028" y="222.33" as="sourcePoint" />
            <mxPoint x="1110" y="222" as="targetPoint" />
          </mxGeometry>
        </mxCell>
        <mxCell id="WMIW8oXceBt_Od-okvsg-38" value="Label" style="edgeLabel;resizable=0;html=1;;align=center;verticalAlign=middle;" connectable="0" vertex="1" parent="WMIW8oXceBt_Od-okvsg-37">
          <mxGeometry relative="1" as="geometry" />
        </mxCell>
        <mxCell id="WMIW8oXceBt_Od-okvsg-39" value="Monitoring" style="edgeLabel;html=1;align=center;verticalAlign=middle;resizable=0;points=[];" vertex="1" connectable="0" parent="WMIW8oXceBt_Od-okvsg-37">
          <mxGeometry x="0.1379" y="-3" relative="1" as="geometry">
            <mxPoint x="-5" as="offset" />
          </mxGeometry>
        </mxCell>
        <mxCell id="WMIW8oXceBt_Od-okvsg-42" value="LLM Answer" style="ellipse;shape=doubleEllipse;whiteSpace=wrap;html=1;" vertex="1" parent="1">
          <mxGeometry x="780" y="195" width="90" height="55" as="geometry" />
        </mxCell>
        <mxCell id="WMIW8oXceBt_Od-okvsg-45" value="Postgres DB" style="text;html=1;align=center;verticalAlign=middle;whiteSpace=wrap;rounded=0;" vertex="1" parent="1">
          <mxGeometry x="959" y="261.5" width="60" height="30" as="geometry" />
        </mxCell>
        <mxCell id="WMIW8oXceBt_Od-okvsg-47" value="" style="swimlane;startSize=0;" vertex="1" parent="1">
          <mxGeometry y="80" width="1290" height="470" as="geometry" />
        </mxCell>
      </root>
    </mxGraphModel>
  </diagram>
</mxfile>
